<svg version="1.1" id="Layer_1" xmlns="http://www.w3.org/2000/svg" xmlns:xlink="http://www.w3.org/1999/xlink" x="0px" y="0px"
	 width="100%" viewBox="0 0 1024 592" enable-background="new 0 0 1024 592" xml:space="preserve">
<path fill="#000000" opacity="1.000000" stroke="none" 
	d="
M1025.000000,394.666687 
	C1022.386536,396.434113 1021.276428,400.590118 1015.731995,399.303436 
	C1020.024963,397.747620 1020.257690,393.259888 1024.625732,392.975311 
	C1025.000000,393.444458 1025.000000,393.888885 1025.000000,394.666687 
z"/>
<path fill="#000000" opacity="1.000000" stroke="none" 
	d="
M252.345657,93.615463 
	C259.240204,95.488426 264.134064,100.258667 269.950348,103.383629 
	C270.876221,103.881096 271.999176,105.184898 271.973083,106.085220 
	C271.834015,110.877815 276.137787,113.233536 277.689423,117.094887 
	C279.456177,121.491562 279.275787,126.204285 280.400085,130.719116 
	C281.610016,135.577606 279.222168,140.709869 278.063049,145.591019 
	C275.592407,155.995438 269.743347,164.851471 264.512878,174.079193 
	C259.941528,182.144089 254.347656,189.490204 249.349030,197.185593 
	C244.565491,204.549835 238.947418,211.677612 232.911865,218.223648 
	C230.418549,220.927841 228.758850,224.123367 226.280258,226.805283 
	C218.159500,235.592194 210.421051,244.733521 202.259995,253.481445 
	C199.861374,256.052521 197.250534,258.943604 194.580078,260.723145 
	C188.768921,264.595520 188.984940,269.555542 189.400131,275.108521 
	C189.509460,276.570770 189.416611,278.048096 189.416611,279.898346 
	C192.806824,278.402771 194.601135,275.764862 196.747147,273.551514 
	C203.692169,266.388611 208.020126,267.201538 211.408173,276.311310 
	C211.625534,276.895752 211.995377,277.423553 212.133331,277.679321 
	C216.654877,273.681854 217.834930,267.586243 222.064957,263.343018 
	C226.533798,258.860260 231.902618,259.726532 234.067947,265.782684 
	C234.561172,267.162109 234.599503,268.736084 236.384827,269.810089 
	C238.912552,263.789398 244.262772,261.151642 249.827744,258.969666 
	C251.734863,258.221893 254.070358,257.799286 256.120361,259.963562 
	C257.115601,253.632629 261.138916,249.192047 264.685669,244.579407 
	C268.618561,239.464554 272.787872,234.474762 277.334076,229.908234 
	C280.351990,226.876862 280.951447,223.582138 280.864838,219.689056 
	C280.804504,216.977020 280.058289,213.608490 283.948547,212.748825 
	C288.043365,211.843948 289.556427,214.592056 290.459839,217.946579 
	C290.577881,218.384964 291.017090,218.736862 291.649445,219.590134 
	C295.982910,216.419144 300.494598,213.528336 304.505829,210.058990 
	C308.027252,207.013306 312.624329,205.505402 315.035095,200.649887 
	C316.782593,197.130341 323.008942,199.066879 324.172577,203.293808 
	C326.101562,210.301102 325.335022,217.534317 325.362488,224.667999 
	C325.402008,234.926285 325.063812,245.174881 325.906464,255.431030 
	C326.240997,259.502808 328.407654,260.203278 331.557098,259.535187 
	C335.582214,258.681335 339.529083,257.458557 343.829742,256.309265 
	C340.908081,254.091064 341.735901,252.024719 344.185516,251.046722 
	C351.223389,248.236877 357.748535,244.074951 365.377747,242.802979 
	C367.598358,242.432724 369.558777,241.819855 369.449585,238.005020 
	C377.837219,245.881622 387.371918,248.119720 398.099274,248.188721 
	C397.008331,245.945099 395.929291,243.850449 393.841980,242.862015 
	C390.214783,241.144409 387.752899,238.184509 385.365601,235.250702 
	C383.043365,232.396835 380.431549,231.260529 376.802673,231.430054 
	C374.054810,231.558411 371.150909,232.095139 368.547638,230.334290 
	C367.083496,229.343964 365.865021,228.369034 366.009552,226.403290 
	C366.154388,224.432861 367.334869,224.283524 369.061951,223.607040 
	C372.721802,222.173538 376.020813,219.776230 379.832764,218.491455 
	C380.832123,218.154617 381.649658,217.342865 381.624023,216.290161 
	C381.486328,210.630234 384.169434,205.487946 384.431152,199.859360 
	C384.668091,194.762802 387.393311,190.136795 390.002380,186.107285 
	C395.279907,177.956528 400.161957,169.357697 407.658936,162.843750 
	C415.936432,155.651672 425.533600,150.790573 435.968201,147.764236 
	C442.284515,145.932327 447.321533,151.546951 448.475403,159.174805 
	C450.437042,172.142303 446.916199,184.255737 444.036194,196.536392 
	C443.429932,199.121719 443.110138,201.816406 442.166565,204.271713 
	C440.180420,209.439774 443.015869,209.647400 446.956085,209.747726 
	C457.549713,210.017456 468.138123,210.541077 478.723297,211.069839 
	C482.364594,211.251740 483.579865,213.673050 483.121399,216.945404 
	C482.690399,220.021698 481.942200,223.053558 481.218140,226.683578 
	C482.906830,225.757980 484.134033,225.246689 485.177063,224.483673 
	C488.439789,222.096863 492.100250,222.373901 494.153259,225.245590 
	C499.684906,232.982895 506.508240,230.833221 513.521790,228.734909 
	C518.058289,227.377670 522.517456,225.634262 528.730530,225.862198 
	C523.119446,231.399445 517.113831,234.008011 511.467468,237.101578 
	C509.598328,238.125641 507.423859,238.584503 505.405426,239.345490 
	C501.226929,240.920853 496.482269,241.159546 493.561646,238.139175 
	C489.075928,233.500275 485.464996,235.321762 481.493408,237.985489 
	C479.163239,239.548370 476.927948,240.979797 474.253540,238.973083 
	C471.497955,236.905472 470.164307,234.026230 470.922516,230.655289 
	C471.699066,227.202682 471.991119,223.824738 471.554565,220.437363 
	C462.465729,218.571671 453.573944,218.524719 444.689667,218.214279 
	C440.339111,218.062241 438.463226,219.669754 436.940613,223.965424 
	C434.875336,229.792007 436.191101,235.845520 434.529236,241.659592 
	C434.150787,242.983582 435.645233,246.268845 436.701019,248.457535 
	C439.211060,253.660934 439.009979,259.051514 438.079041,264.488434 
	C437.611115,267.221283 436.366974,270.016022 433.345184,270.207886 
	C430.361237,270.397369 428.039825,268.345062 426.933990,265.509979 
	C425.852570,262.737549 425.107086,259.834076 424.201691,256.948486 
	C417.526672,255.406265 410.820709,256.070251 404.124207,255.874924 
	C396.305206,255.646851 388.851593,256.575226 381.288177,258.292114 
	C378.171631,258.999573 377.149750,260.505615 377.476410,262.923981 
	C379.425079,277.352600 376.545990,291.734009 377.259766,306.137726 
	C377.275269,306.450562 377.456604,306.755188 377.628876,307.266083 
	C389.814636,304.840454 401.676392,301.134277 413.636993,297.800598 
	C418.190247,296.531494 422.842133,295.620667 427.429016,294.466919 
	C439.800018,291.355164 452.462585,289.517578 464.681213,285.689850 
	C468.572418,284.470886 472.790833,284.118164 476.889771,283.871857 
	C477.858337,283.813690 478.185150,283.410004 478.804993,283.108673 
	C482.305298,281.406982 485.762817,280.827393 488.710999,283.486877 
	C493.301025,280.569580 498.378448,280.719391 503.226654,280.232422 
	C507.380524,279.815247 511.587860,278.492279 515.504639,278.504028 
	C522.397339,278.524750 528.957520,275.371185 535.864685,276.880890 
	C538.443848,277.444641 541.393555,277.443726 543.593201,276.985992 
	C553.088928,275.009979 562.734497,275.094940 572.282349,274.329651 
	C579.157898,273.778503 586.182373,275.005066 593.135010,275.513031 
	C602.470337,276.195129 611.837158,275.686462 621.193848,276.103271 
	C627.705933,276.393341 634.521362,275.301880 641.211975,275.755981 
	C652.125549,276.496582 663.026855,277.422791 673.929565,278.315613 
	C675.544800,278.447876 676.432251,277.640045 677.061829,276.363434 
	C682.498596,265.339691 686.858521,253.869247 691.578857,242.634216 
	C689.604065,240.850311 687.934998,241.219238 686.139099,241.872360 
	C680.979248,243.748856 675.915710,244.395844 670.259521,243.206161 
	C665.130249,242.127289 659.777954,244.495926 655.393188,247.028549 
	C650.653992,249.765854 645.744629,250.493469 640.665466,250.998856 
	C637.333862,251.330368 636.172119,248.706985 636.618835,246.032120 
	C637.834595,238.753250 652.905579,227.324280 659.281555,229.479858 
	C665.277161,231.506851 671.661072,232.449402 677.922913,233.604858 
	C682.924438,234.527771 687.833435,233.188721 692.649231,232.038589 
	C693.868408,231.747437 695.231079,230.199158 695.702637,228.923523 
	C700.313293,216.449936 703.584106,203.621689 705.936279,190.631104 
	C692.743408,185.947708 615.731445,199.026077 604.520813,207.606857 
	C605.106201,210.481277 608.181763,211.247299 609.593018,213.419800 
	C605.901917,216.067108 601.105774,215.368713 597.841370,211.721497 
	C594.057373,207.493729 593.992065,204.300934 597.855774,200.529617 
	C602.608032,195.890930 608.685730,193.600815 614.768127,191.373718 
	C621.827881,188.788757 629.362183,188.994507 636.493347,187.704514 
	C641.560669,186.787857 646.896606,185.810715 652.092712,185.030518 
	C659.770081,183.877777 667.728577,183.741928 675.190796,182.089035 
	C683.881226,180.164124 692.713013,180.822403 701.285950,178.873398 
	C704.438354,178.156708 707.340942,176.467880 707.481079,173.331619 
	C708.045654,160.702286 708.499817,147.993423 702.214233,136.303116 
	C695.753540,124.287224 685.662048,117.658440 672.135193,116.492104 
	C652.137695,114.767853 636.050598,124.210480 622.140930,136.624680 
	C611.039551,146.532471 604.167908,160.061234 597.343445,173.464905 
	C591.216309,185.499054 590.493835,198.699387 586.475281,211.120682 
	C585.415710,214.395721 584.773193,218.075531 581.120361,218.597168 
	C577.399841,219.128494 574.458862,216.383270 571.848083,213.803146 
	C562.296936,204.364029 556.645447,192.482086 551.315125,180.473862 
	C549.675476,176.780029 550.134827,172.315521 547.872253,168.681564 
	C547.438416,167.984772 547.301453,167.113739 546.283203,166.901855 
	C545.120850,167.392380 544.650208,168.460129 544.348145,169.586243 
	C540.090576,185.458389 536.019836,201.363007 536.062927,217.974060 
	C536.069275,220.424194 536.589905,223.738800 533.207397,223.893250 
	C529.969360,224.041107 527.434143,222.078995 526.335938,218.516586 
	C524.743652,213.351303 525.237671,208.035751 525.273743,202.867615 
	C525.362488,190.164597 527.173645,177.566345 533.503418,166.330322 
	C536.882568,160.331985 541.476379,155.003174 544.739807,148.854630 
	C545.759155,146.934143 547.552185,146.592041 549.483154,147.157394 
	C552.134583,147.933685 553.700378,149.880051 554.086243,152.511200 
	C555.043335,159.037537 556.598511,165.459808 557.606323,171.951477 
	C558.383606,176.958237 561.563232,180.616043 563.501709,184.883804 
	C566.188660,190.799500 569.642700,196.562286 574.206177,201.452713 
	C575.017090,202.321732 575.583557,203.474869 576.935059,203.167358 
	C578.278442,202.861664 578.472412,201.605988 578.695618,200.430878 
	C583.207031,176.680908 593.615051,155.460770 609.171387,137.363815 
	C624.353943,119.701683 643.048950,106.660805 667.782654,106.643867 
	C678.644226,106.636429 688.394714,110.184952 697.566589,116.738693 
	C706.574280,123.175095 710.991943,131.780319 714.308105,141.584930 
	C714.558228,142.324448 715.135315,142.953384 715.517883,143.565704 
	C724.069092,141.509995 732.378296,149.150253 732.266968,159.323059 
	C732.210327,164.495926 734.241699,169.509613 733.046875,174.708817 
	C732.803284,175.768860 733.406555,176.607544 734.320679,177.211899 
	C737.377502,179.232895 745.705322,176.419464 746.567200,172.821625 
	C747.777649,167.768631 749.851379,163.060852 751.822815,158.312836 
	C753.043030,155.373978 755.370483,152.774521 758.652649,153.903458 
	C761.708130,154.954407 762.559265,157.995010 761.465576,161.347641 
	C760.538147,164.190918 759.808228,167.110825 759.182739,170.037811 
	C757.893311,176.071259 760.710876,178.951828 767.009216,178.330811 
	C781.851746,176.867355 796.613831,178.215286 811.382324,179.608093 
	C818.976196,180.324265 826.591431,180.912476 834.210571,181.220078 
	C837.950867,181.371063 839.166443,183.991623 839.627441,186.566559 
	C840.081726,189.103958 837.675842,190.561111 835.404541,191.465225 
	C832.354736,192.679260 829.116455,192.373871 826.007629,192.154587 
	C809.577576,190.995758 793.169128,189.524246 776.736145,188.413727 
	C770.434387,187.987854 764.085876,188.117599 757.761536,188.204102 
	C752.485352,188.276276 752.655640,193.097702 752.265930,196.188065 
	C751.929016,198.859818 752.012817,201.723984 751.364990,204.809128 
	C756.497925,206.403870 757.455444,210.691940 757.446777,216.000641 
	C762.847900,214.444550 766.878662,211.395416 771.638123,210.324753 
	C773.407532,209.926712 775.055542,209.016953 776.808350,208.511948 
	C781.425964,207.181580 784.005676,209.290848 785.020508,213.716415 
	C786.622681,213.138824 786.616150,211.518890 787.492188,210.561920 
	C791.340515,206.357910 795.167603,206.929337 797.397766,212.046844 
	C800.525818,219.224976 801.626892,219.371521 806.908813,213.312637 
	C809.985535,209.783356 812.864319,209.895630 815.604919,213.963348 
	C817.896362,217.364212 820.065979,217.016785 822.263733,214.134811 
	C825.715027,209.609177 829.346985,206.369171 834.994263,211.085785 
	C835.871277,211.818268 836.930908,211.423828 837.805176,210.883667 
	C839.917969,209.578339 841.559509,210.392548 843.162842,211.881332 
	C846.773926,215.234512 850.226868,215.204300 854.158936,212.000076 
	C860.167236,207.104019 860.307922,207.276566 865.489624,212.570755 
	C870.052307,217.232407 873.509338,217.289444 877.856140,212.774780 
	C880.841125,209.674423 886.490417,209.805679 890.406982,213.066437 
	C899.469238,220.610977 908.853455,218.880249 914.391235,208.609039 
	C916.593628,204.524155 918.841675,200.502304 920.432434,196.067703 
	C923.086731,188.668015 924.093506,181.608032 921.280823,173.857101 
	C916.008728,159.329056 916.040588,144.222076 918.690918,129.206833 
	C920.347229,119.823120 926.039551,112.613678 933.478760,106.827171 
	C936.821289,104.227249 940.677979,104.105812 944.328857,105.769722 
	C947.648621,107.282784 948.095764,110.581764 947.834045,113.876534 
	C947.289307,120.734337 947.363220,127.630257 944.302368,134.149658 
	C942.429688,138.138260 941.038452,142.585541 943.563721,146.692398 
	C940.271240,152.481247 936.411621,157.549500 937.081543,164.888138 
	C937.374084,168.092560 934.747192,171.589767 934.421448,175.266052 
	C934.322571,176.381454 933.600952,177.450851 934.152283,178.626892 
	C937.772034,186.347824 940.613342,194.416794 944.884338,201.852798 
	C948.488647,208.127960 953.965149,213.046265 957.399780,219.771957 
	C955.540405,214.756668 957.336670,211.161057 960.913879,208.155624 
	C963.472961,206.005554 966.038147,206.051453 967.347595,209.257202 
	C970.391907,216.709930 972.435181,224.411301 970.367249,232.551773 
	C968.851685,238.518021 965.745483,239.627533 960.488098,236.229843 
	C952.438110,231.027420 947.791748,222.827652 942.176086,215.477493 
	C938.343811,210.461639 935.708740,204.753311 932.746948,199.237686 
	C932.094238,198.022217 931.405090,196.963669 930.123169,196.176575 
	C928.244873,196.816910 927.436218,198.384918 926.918396,200.169022 
	C924.353821,209.004822 919.562683,216.689713 912.521729,222.298859 
	C907.073242,226.639481 899.891174,226.375946 893.107910,225.155853 
	C889.409119,224.490570 885.886353,221.681046 881.980591,225.031052 
	C881.217651,225.685486 878.729492,225.316864 877.722656,224.536026 
	C871.759705,219.911118 864.511475,223.103073 858.074585,221.166183 
	C856.296082,220.631012 853.377075,222.595612 851.477661,224.057877 
	C848.703247,226.193924 845.739136,226.002167 842.968323,225.146698 
	C838.314636,223.709900 833.408936,226.489670 828.803223,223.818069 
	C827.607483,223.124496 825.895996,224.905731 824.593628,226.011475 
	C820.022156,229.892944 815.573364,230.427185 810.367126,227.382217 
	C808.752869,226.438095 807.282349,226.212738 805.665100,226.405930 
	C797.378967,227.395752 797.382629,227.426178 790.149597,223.808853 
	C787.711121,227.826080 784.836792,232.788406 779.820374,232.431152 
	C773.979492,232.015198 773.716736,225.870300 772.583069,221.402649 
	C770.063965,220.436676 768.502625,222.035172 766.914307,223.030716 
	C764.357117,224.633575 761.795776,225.888489 758.761780,226.517410 
	C751.389771,228.045563 748.195618,233.434799 749.876648,241.003860 
	C750.742981,244.904892 751.818359,248.781128 750.781494,252.799591 
	C750.133545,255.310822 749.093018,257.970367 746.015259,257.675751 
	C743.019287,257.388947 741.855347,255.115967 741.557434,252.040878 
	C740.684021,243.026154 740.712463,233.857239 735.821594,225.603607 
	C731.612122,218.499817 731.968506,217.646851 738.579834,212.591476 
	C741.009521,210.733627 741.472107,208.175201 741.596313,205.519257 
	C741.806580,201.021667 741.942322,196.545105 743.294739,192.188583 
	C744.135986,189.478668 743.081177,188.192841 740.150635,188.023254 
	C732.078613,187.556168 729.226135,189.192566 727.473206,198.052048 
	C726.484863,203.047394 723.957947,206.942490 721.560974,211.020721 
	C719.672546,214.233643 719.052979,217.482178 719.539917,221.028870 
	C720.666992,229.238174 721.894348,237.419479 720.351379,245.737015 
	C719.936218,247.975143 719.392029,249.584442 716.035950,249.457703 
	C715.826477,242.953110 715.434753,236.336502 712.136475,230.094864 
	C707.399963,232.710831 704.535522,235.997269 703.026550,241.018127 
	C699.410217,253.049973 693.458313,264.161621 688.527832,275.677826 
	C688.146057,276.569611 687.409363,277.366425 688.017761,278.947205 
	C693.453552,281.406342 699.717651,280.992554 705.673645,281.417297 
	C712.626282,281.913086 719.354858,286.181763 726.550293,282.899170 
	C732.266846,286.813354 739.349182,285.891663 745.177979,285.684113 
	C755.472778,285.317505 764.678467,290.234802 774.940369,289.469421 
	C780.258911,289.072754 785.800110,291.861511 791.264587,293.106812 
	C793.032959,293.509796 794.871338,293.681305 796.687561,293.785339 
	C803.220703,294.159546 808.704346,299.344574 809.008667,305.945221 
	C809.120300,308.365448 810.670532,308.610626 812.199158,309.022369 
	C815.804871,309.993561 817.443054,312.218048 817.227722,315.955994 
	C817.012817,319.688019 815.036316,321.510681 811.465759,322.370636 
	C805.079590,323.908752 798.546448,323.354034 792.097717,324.010956 
	C773.321777,325.923645 754.427734,326.134430 735.565674,326.400452 
	C721.893005,326.593262 708.464539,329.507416 694.817505,329.597595 
	C686.421997,329.653076 678.071472,330.926849 669.790100,331.104431 
	C660.210327,331.309814 654.360718,335.626312 650.461975,343.163177 
	C646.227661,351.348602 639.833740,358.060883 635.571106,366.086609 
	C629.837524,376.881470 621.223633,385.482574 614.099121,395.162903 
	C603.475403,409.597839 591.252136,422.897278 578.634827,435.773254 
	C573.800720,440.706543 569.710876,446.523224 564.551270,451.161194 
	C556.371460,458.513947 548.604309,466.273590 539.695923,472.922852 
	C531.035522,479.387054 522.298584,485.818237 513.102539,491.298737 
	C501.077209,498.465485 488.375793,504.798492 473.958984,506.048859 
	C473.362976,506.100555 472.739380,505.834015 472.128662,505.715729 
	C472.106018,503.242157 474.084259,503.357941 475.301361,503.069427 
	C485.986969,500.536713 495.234070,495.191925 504.410553,489.339661 
	C517.912415,480.728851 530.478516,470.970764 542.615540,460.595398 
	C556.942810,448.347656 569.719727,434.573578 582.028625,420.356171 
	C597.389893,402.612976 611.841064,384.153839 625.485168,365.049347 
	C627.712585,361.930511 628.292603,358.077393 630.935913,355.186890 
	C632.143372,353.866486 628.984192,352.566925 629.935486,350.621033 
	C631.682007,349.195007 632.130493,352.276154 634.218933,351.635071 
	C638.422485,346.538300 641.747009,340.278473 645.646362,333.982758 
	C640.061768,331.486450 635.101807,333.926544 630.176636,334.380188 
	C620.783203,335.245392 611.380188,336.335388 602.056580,337.609222 
	C588.888123,339.408356 575.671814,340.851685 562.510315,342.714447 
	C550.828979,344.367737 539.298828,347.187195 527.425659,347.453827 
	C523.530273,347.541290 518.233704,344.537628 517.893860,341.877533 
	C517.557129,339.241882 521.606262,333.983917 524.868469,332.969879 
	C532.055908,330.735718 539.557251,330.086548 546.942810,329.019012 
	C559.412659,327.216553 572.007385,326.279572 584.478455,324.484314 
	C600.321655,322.203644 616.272278,321.635895 632.203003,320.610626 
	C638.669006,320.194489 645.105896,319.291107 651.545227,318.518829 
	C653.350647,318.302307 655.398926,318.049194 656.357544,316.262360 
	C661.129517,307.367371 665.788696,298.411926 670.640686,289.186768 
	C667.763245,287.835663 665.198669,287.439178 662.554626,287.349976 
	C641.860229,286.651550 621.151855,286.225281 600.476257,285.160797 
	C585.750183,284.402649 571.118958,285.270966 556.430786,285.747742 
	C545.588074,286.099701 534.779114,287.031891 523.936035,287.374969 
	C514.563599,287.671539 505.233704,289.728790 495.914307,291.194153 
	C481.832642,293.408356 467.748199,295.627563 453.720886,298.155365 
	C446.208649,299.509155 438.886475,302.017487 431.348724,303.106598 
	C419.672058,304.793701 409.314514,310.819916 397.763153,312.671143 
	C391.810669,313.625061 386.397064,315.928802 380.869537,318.135956 
	C378.166107,319.215424 377.274170,320.598053 377.304657,323.249908 
	C377.354584,327.588623 376.952423,331.865295 375.564056,336.047974 
	C373.997772,340.766602 371.308594,341.558746 367.609344,338.152283 
	C365.541229,336.247833 364.629211,333.968597 364.593170,331.064911 
	C364.506104,324.054108 363.405487,323.491425 357.105530,326.667480 
	C355.029175,327.714264 353.018982,329.005859 350.822968,329.675079 
	C347.489441,330.690948 345.949493,332.829041 345.470459,336.116364 
	C344.367889,343.682190 343.232635,351.244019 342.008270,358.790863 
	C341.508240,361.872894 341.274567,365.923615 336.705200,364.884033 
	C332.711517,363.975433 333.714844,360.437866 334.264435,357.415100 
	C335.544891,350.372589 335.901001,343.255768 335.881836,335.560455 
	C332.120300,337.374115 328.403778,337.729309 325.360382,340.854797 
	C322.006531,344.299133 316.718872,344.972351 312.485138,347.480316 
	C306.067230,351.282135 301.102753,357.069702 294.411102,360.241974 
	C287.591003,363.475189 284.413818,370.431915 278.637665,374.800751 
	C276.398499,376.494354 274.682343,381.492798 276.421570,385.155853 
	C277.653595,387.750610 281.251129,388.284546 283.328644,386.670532 
	C289.204559,382.105560 295.790314,384.232208 302.005524,384.207367 
	C308.190918,384.182648 314.309662,383.421082 320.522583,383.218567 
	C315.637268,387.263123 309.802307,387.981293 303.983704,388.187836 
	C300.205292,388.321930 296.432129,388.674896 292.545410,388.206757 
	C289.330414,387.819550 286.111816,390.374878 283.075409,391.736572 
	C277.273407,394.338501 273.492432,392.105103 269.868469,388.259857 
	C266.092285,384.253113 267.137024,379.478394 268.695770,375.114014 
	C270.839172,369.112701 274.991547,364.515411 279.541290,359.932526 
	C289.775757,349.623535 302.001495,342.220917 314.130157,334.688477 
	C319.233765,331.518860 325.054565,329.172546 330.856842,327.554688 
	C336.420776,326.003204 338.353607,322.274109 338.940399,317.506195 
	C340.601013,304.013580 341.980347,290.485504 343.369995,276.961060 
	C343.724182,273.513824 343.705475,270.028229 342.068542,266.627991 
	C336.650238,266.290344 331.646271,268.011078 326.696655,269.587280 
	C319.928101,271.742737 316.238037,268.956146 316.558380,261.899200 
	C316.875031,254.923462 317.048798,247.929428 316.057220,240.961136 
	C314.721313,231.573318 316.983459,222.146835 315.670563,212.593094 
	C312.966705,211.061386 310.545074,211.800598 308.605774,214.342422 
	C306.140289,217.573868 301.999115,217.941895 298.931183,220.148010 
	C295.130066,222.881348 292.325165,226.114258 292.945465,230.837265 
	C291.372070,232.358398 290.720459,229.940170 289.542236,230.639893 
	C289.542236,240.395966 289.542236,250.140045 289.542236,260.249847 
	C294.062378,261.594177 299.075745,260.401978 303.969574,261.078705 
	C307.177460,261.522308 309.202972,262.222015 309.427765,265.323273 
	C309.693787,268.994232 306.005707,269.533966 303.914368,269.783783 
	C294.424957,270.917480 284.965210,272.738586 275.331818,272.245239 
	C273.282318,272.140320 271.392761,272.731049 269.484283,273.347473 
	C267.744965,273.909241 265.680908,275.018402 264.160522,274.067749 
	C257.573059,269.948730 253.286987,275.605103 248.147934,277.530975 
	C246.603821,278.109619 245.246338,279.166809 243.743454,279.878265 
	C237.085678,283.030060 233.546326,281.845215 229.872620,275.320251 
	C229.244293,274.204285 228.558884,273.120392 227.724091,271.728699 
	C222.944061,276.505402 221.098099,282.661804 217.880493,287.958221 
	C216.621902,290.029907 215.650360,292.120148 212.735489,291.822174 
	C209.809601,291.523102 208.592133,289.248932 207.441559,287.042633 
	C206.334824,284.920441 206.599854,282.045441 203.698929,280.591461 
	C199.130768,284.372467 194.706451,288.357361 191.805145,293.680603 
	C189.340988,298.201752 191.593536,302.734283 192.064209,307.302643 
	C193.067078,317.036865 193.310181,326.857086 194.529999,336.558411 
	C195.300156,342.683655 195.711960,348.740631 195.251465,354.860748 
	C194.868454,359.950928 192.553391,362.654053 188.506638,362.829102 
	C190.330017,356.129364 188.967377,349.520538 188.194138,342.893311 
	C186.691391,330.013641 185.401474,317.031982 183.040863,304.365814 
	C181.945801,298.490112 179.728760,293.716980 181.872330,287.347260 
	C183.018631,283.940979 182.479584,278.862091 180.984955,274.626343 
	C178.901321,274.851044 177.327637,275.708618 176.222809,277.214417 
	C168.186432,288.167297 156.591293,295.826691 148.638168,306.776642 
	C144.476303,312.506714 141.117432,319.102020 143.127426,326.587585 
	C144.837326,332.955658 151.208633,333.146698 156.151947,335.039551 
	C157.410263,335.521393 159.690643,334.796143 159.107346,337.190063 
	C158.653519,339.052612 156.571747,338.856049 155.279053,338.357025 
	C151.257599,336.804565 146.615356,338.248260 142.845734,335.344940 
	C135.378098,329.593384 134.733841,322.129730 137.820145,311.819031 
	C139.948898,304.707214 145.001892,299.145905 150.086426,293.492096 
	C155.605316,287.355316 161.331802,281.447083 167.050110,275.513550 
	C169.820999,272.638336 172.372513,269.499115 175.741943,267.304535 
	C179.791550,264.666962 180.876343,260.698669 181.108475,256.308411 
	C182.143188,236.738373 183.615982,217.221359 187.103760,197.896683 
	C187.956818,193.170105 188.416840,188.337219 188.595016,183.536026 
	C188.725357,180.024094 189.839767,177.171875 193.426727,177.277618 
	C197.507233,177.397903 196.926407,181.220230 196.635635,183.836075 
	C194.990204,198.638901 193.973251,213.504044 191.522339,228.232224 
	C190.148987,236.485168 190.021606,244.945419 189.270187,254.073013 
	C197.612946,246.766586 204.627975,239.227631 211.113968,231.370575 
	C222.090240,218.073990 233.355759,204.965683 242.860764,190.497467 
	C251.758545,176.953522 260.760773,163.462891 266.998779,148.427826 
	C270.296295,140.479950 271.474518,132.131973 270.183624,123.473549 
	C268.513275,112.270409 262.343445,104.607986 252.130554,100.196960 
	C241.841324,95.752968 230.980606,95.129013 219.869476,95.228447 
	C207.548752,95.338692 195.513794,97.032669 183.609711,99.807312 
	C167.725983,103.509544 151.855423,107.149208 136.724228,113.656242 
	C127.631264,117.566589 118.460213,121.531677 110.061852,126.484489 
	C98.828438,133.109222 87.294830,139.398499 77.260979,148.156403 
	C67.659142,156.537231 57.530018,164.320374 50.337147,174.951950 
	C46.233879,181.016876 42.105930,187.095352 39.717186,194.326797 
	C38.113819,199.180710 37.426785,204.193542 35.948811,209.048981 
	C34.002987,215.441406 35.402687,221.814728 39.607025,227.439972 
	C42.029873,230.681641 45.595097,233.190109 46.842476,237.831894 
	C40.443123,239.125763 37.012646,234.869278 33.812080,231.239273 
	C28.521349,225.238632 27.904995,217.487640 28.552246,210.034256 
	C28.890108,206.143616 28.773739,202.199188 29.476873,198.239182 
	C31.585745,186.362030 37.993690,176.948288 44.850594,167.528412 
	C51.265118,158.716248 59.476471,151.659744 67.781746,145.051163 
	C78.613258,136.432419 90.034996,128.526657 102.576408,122.118134 
	C113.840446,116.362335 125.065903,110.592094 136.718369,105.703781 
	C144.939056,102.255142 153.174088,98.950851 162.196625,97.650070 
	C169.365936,96.616463 176.093353,93.345016 183.341461,92.108406 
	C195.911713,89.963783 208.497711,88.621841 221.275696,89.178185 
	C224.889267,89.335510 228.608109,89.235069 232.159637,88.894020 
	C239.447021,88.194229 245.494125,91.596848 252.345657,93.615463 
M776.645020,300.255493 
	C772.250671,300.505219 768.280640,298.382874 763.956177,298.061920 
	C750.263733,297.045746 736.611084,295.680847 723.036865,293.496735 
	C710.146118,291.422577 697.098022,290.870209 684.070923,290.255798 
	C681.375854,290.128693 679.092163,291.052063 678.146912,293.831146 
	C675.787659,300.767090 672.885559,307.414185 668.429443,313.304352 
	C667.554688,314.460632 666.590820,315.700409 667.373840,317.298798 
	C668.932678,318.185883 670.355652,317.170685 671.813171,317.186798 
	C691.942871,317.409302 711.915894,315.702728 731.769470,312.411682 
	C737.261047,311.501312 742.977722,312.239746 748.300476,311.674438 
	C755.539612,310.905487 762.858826,311.057037 770.052734,309.896637 
	C777.304321,308.726929 784.603271,307.744720 791.229187,303.755768 
	C786.843689,301.359436 781.987366,301.467590 776.645020,300.255493 
M403.943390,181.146652 
	C403.287720,183.796661 400.289886,184.152847 399.007843,186.443130 
	C395.163757,193.310257 392.584259,200.571548 391.347626,208.282196 
	C390.269958,215.001678 391.140106,215.476547 397.891174,214.564774 
	C407.194000,213.308350 416.185669,209.934814 425.776947,210.576874 
	C428.284241,210.744720 429.981445,209.596786 430.781525,206.774521 
	C435.132416,191.427505 439.254944,176.080994 439.106781,159.916351 
	C439.073669,156.303970 437.304901,155.646072 434.784729,156.736282 
	C424.881470,161.020355 415.657776,166.409073 408.618530,174.844986 
	C407.095123,176.670624 404.090851,177.363785 403.943390,181.146652 
M348.250610,316.743103 
	C348.437042,317.654144 347.853943,318.766846 349.049896,319.521698 
	C353.959229,317.128418 358.752350,314.243256 363.927460,312.477783 
	C366.957977,311.443878 367.697357,310.240387 367.693054,307.336304 
	C367.672424,293.428833 368.053711,279.517700 367.828918,265.615356 
	C367.754395,261.007416 368.948486,256.158966 367.068848,251.459869 
	C365.093567,251.869583 363.645630,252.162903 362.200775,252.470825 
	C355.159698,253.971466 353.540344,255.957214 353.324066,263.018616 
	C353.141144,268.991425 353.138947,274.992279 352.518311,280.924408 
	C351.293365,292.632660 349.695496,304.301910 348.250610,316.743103 
M424.663666,241.551682 
	C425.566193,234.093536 426.468689,226.635391 427.375977,219.137817 
	C416.041229,218.801102 405.703064,221.082748 395.462158,224.053696 
	C393.847534,224.522125 391.229767,223.656387 391.613037,226.547638 
	C391.883270,228.586243 393.720398,229.114670 395.808624,229.163712 
	C400.259735,229.268265 404.510223,230.258698 409.009491,233.416336 
	C403.944702,234.309265 399.640015,231.467651 395.551453,233.714294 
	C399.527008,240.393616 408.063141,245.079834 418.489380,247.110672 
	C422.967590,247.982941 424.871826,246.909576 424.663666,241.551682 
M266.280212,254.900742 
	C264.422699,260.618530 265.439789,263.562866 269.581970,264.458679 
	C276.205353,265.891113 281.679932,261.895203 281.636963,255.082855 
	C281.598663,249.015671 282.068298,242.871262 280.539459,236.696579 
	C273.660950,240.845840 270.612335,247.915054 266.280212,254.900742 
M931.037598,126.592720 
	C926.815002,135.771378 925.870850,154.716095 929.715576,158.974991 
	C933.526672,145.563980 937.581177,132.451691 939.235718,118.022423 
	C935.651855,120.564613 932.463318,122.210907 931.037598,126.592720 
M726.754700,172.569580 
	C726.901611,167.258575 725.580811,162.386642 722.557922,157.206482 
	C718.674805,162.149521 719.204346,167.483490 718.172974,172.373260 
	C717.543457,175.358200 716.950500,178.308594 721.212952,178.616531 
	C724.714722,178.869507 727.584778,177.912842 726.754700,172.569580 
M723.276428,190.682785 
	C721.551758,188.723282 718.335876,188.704788 718.001831,190.884232 
	C717.448486,194.494934 717.851318,198.252182 717.851318,201.947678 
	C721.138367,198.796631 722.098633,195.042938 723.276428,190.682785 
M381.811188,247.836853 
	C380.431854,247.409821 379.084229,246.545471 377.578400,247.495987 
	C377.203247,249.009766 377.247559,250.455826 377.892944,251.899826 
	C380.687744,251.153275 383.441986,250.417572 387.040253,249.456406 
	C384.933319,248.825119 383.688202,248.452042 381.811188,247.836853 
z"/>
<path fill="#000000" opacity="1.000000" stroke="none" 
	d="
M1000.569702,228.019653 
	C1002.513916,224.675858 1004.289673,221.169098 1008.614929,223.505646 
	C1012.500061,225.604431 1010.732300,229.495285 1009.980286,232.268585 
	C1009.201355,235.141479 1006.845947,238.260132 1003.139465,237.098877 
	C998.653259,235.693344 999.543762,231.871262 1000.569702,228.019653 
z"/>
<path fill="#000000" opacity="1.000000" stroke="none" 
	d="
M887.659119,183.916779 
	C885.733337,179.883148 887.214417,177.508057 890.688782,176.114609 
	C893.450500,175.007004 896.280396,174.067261 899.096558,173.101242 
	C899.302795,173.030487 899.643555,173.351486 900.406921,173.732483 
	C897.637939,177.998978 891.616211,176.749649 888.744202,180.881027 
	C890.303650,184.705673 896.321411,185.803513 895.862610,191.878387 
	C892.729614,189.254822 891.016479,185.939819 887.659119,183.916779 
z"/>
<path fill="#000000" opacity="1.000000" stroke="none" 
	d="
M384.351562,559.664612 
	C386.484161,562.538513 385.852905,565.002808 383.023529,565.804626 
	C380.280731,566.581848 377.247742,565.332520 376.025909,562.603699 
	C375.144836,560.635864 375.683990,558.093689 378.870361,558.330872 
	C380.618958,558.461060 382.520599,558.273682 384.351562,559.664612 
z"/>
<path fill="#000000" opacity="1.000000" stroke="none" 
	d="
M1013.979980,321.588989 
	C1015.265930,318.900543 1015.226929,315.643951 1019.937866,314.775269 
	C1015.309082,321.314087 1016.052185,328.008148 1016.424377,335.056335 
	C1013.173645,332.093384 1013.173645,332.093384 1013.979980,321.588989 
z"/>
<path fill="#000000" opacity="1.000000" stroke="none" 
	d="
M400.118561,394.515839 
	C401.368103,396.085632 402.408966,397.372284 401.860352,399.179779 
	C399.581787,399.310028 399.855957,396.468903 397.729431,396.278656 
	C398.188904,399.222351 398.641998,402.125153 399.254272,406.047699 
	C394.871094,403.218964 395.603027,399.217987 395.341644,396.121246 
	C395.144012,393.779510 397.626526,393.291565 400.118561,394.515839 
z"/>
<path fill="#000000" opacity="1.000000" stroke="none" 
	d="
M741.095459,262.943481 
	C746.702087,262.959625 748.078369,267.173584 744.451599,273.049561 
	C742.579163,270.585632 744.910767,267.705261 743.434631,265.444183 
	C741.494934,264.137024 740.932068,267.521332 739.049377,266.655884 
	C738.252380,264.856171 739.801819,264.108612 741.095459,262.943481 
z"/>
<path fill="#000000" opacity="1.000000" stroke="none" 
	d="
M720.793091,30.314899 
	C721.157043,29.140991 721.635864,28.547983 723.088196,28.682013 
	C722.177917,32.211700 723.463501,35.924324 721.815125,39.420204 
	C717.807312,37.702591 717.755188,37.233273 720.793091,30.314899 
z"/>
<path fill="#000000" opacity="1.000000" stroke="none" 
	d="
M282.156555,308.507935 
	C283.242157,308.927856 283.985260,309.236542 284.166016,310.223602 
	C278.854126,310.741974 277.414215,308.212402 276.625793,296.665741 
	C279.241241,298.204559 279.101013,300.437805 279.445618,302.570892 
	C279.779877,304.639923 279.962463,306.887970 282.156555,308.507935 
z"/>
<path fill="#000000" opacity="1.000000" stroke="none" 
	d="
M816.744141,388.182037 
	C820.644043,385.275299 822.727661,386.043884 825.168640,391.082184 
	C821.676331,392.211731 819.274597,389.993561 816.744141,388.182037 
z"/>
<path fill="#000000" opacity="1.000000" stroke="none" 
	d="
M704.487427,260.742126 
	C704.046509,262.414490 704.591431,264.145538 702.795471,264.901947 
	C701.139954,260.112244 702.609131,257.084808 706.744812,256.855865 
	C706.866943,258.579681 704.611755,258.839813 704.487427,260.742126 
z"/>
<path fill="#000000" opacity="1.000000" stroke="none" 
	d="
M852.100220,286.604553 
	C854.714722,287.004639 856.702026,287.789490 856.253479,291.425629 
	C854.103821,290.022797 849.910645,291.588074 852.100220,286.604553 
z"/>
<path fill="#000000" opacity="1.000000" stroke="none" 
	d="
M688.962769,296.506958 
	C691.158813,295.613831 693.012817,295.233612 694.262146,297.383514 
	C693.494385,299.312714 691.216797,297.627411 690.539307,299.279419 
	C689.424744,301.059631 691.736084,302.670898 690.793762,304.460358 
	C687.141724,301.958099 686.905029,301.085541 688.962769,296.506958 
z"/>
<path fill="#000000" opacity="1.000000" stroke="none" 
	d="
M720.228271,297.059204 
	C719.334717,301.430298 721.670044,304.378021 725.137207,307.909119 
	C720.289917,307.555298 719.119934,304.745697 718.261963,302.045288 
	C717.671143,300.185852 716.687622,297.661285 720.228271,297.059204 
z"/>
</svg>